<svg aria-hidden="true" focusable="false" data-prefix="fas" data-icon="code-symbol" class="svg-inline--fa fa-code-symbol fa-w-16" role="img" xmlns="http://www.w3.org/2000/svg" viewBox="0 0 512 512">
  <path fill="#bbb" d="M139.3 175.3c9.4 9.4 9.4 24.6 0 33.9L81.9 266.6l57.4 57.4c9.4 9.4 9.4 24.6 0 33.9s-24.6 9.4-33.9 0l-74-74c-9.4-9.4-9.4-24.6 0-33.9l74-74c9.3-9.4 24.5-9.4 33.9 0zm233.4 0c9.4-9.4 24.6-9.4 33.9 0l74 74c9.4 9.4 9.4 24.6 0 33.9l-74 74c-9.4 9.4-24.6 9.4-33.9 0s-9.4-24.6 0-33.9l57.4-57.4-57.4-57.4c-9.4-9.3-9.4-24.5 0-33.9zM296.5 86.6c12.9 3.9 20.2 17.7 16.3 30.6l-80 256c-3.9 12.9-17.7 20.2-30.6 16.3s-20.2-17.7-16.3-30.6l80-256c3.9-12.9 17.7-20.2 30.6-16.3z"/>
</svg>
